<svg xmlns="http://www.w3.org/2000/svg" xmlns:xlink="http://www.w3.org/1999/xlink" width="429" zoomAndPan="magnify" viewBox="0 0 321.75 401.249997" height="535" preserveAspectRatio="xMidYMid meet" version="1.0"><defs><g/><clipPath id="cf9b0b9d1b"><path d="M 22.945312 69.367188 L 265.492188 69.367188 L 265.492188 311.914062 L 22.945312 311.914062 Z M 22.945312 69.367188 " clip-rule="nonzero"/></clipPath><clipPath id="f46b2f308c"><path d="M 265.492188 104.550781 L 265.492188 276.730469 C 265.492188 296.160156 249.742188 311.914062 230.308594 311.914062 L 58.128906 311.914062 C 38.699219 311.914062 22.945312 296.160156 22.945312 276.730469 L 22.945312 104.550781 C 22.945312 85.121094 38.699219 69.367188 58.128906 69.367188 L 230.308594 69.367188 C 249.742188 69.367188 265.492188 85.121094 265.492188 104.550781 Z M 265.492188 104.550781 " clip-rule="nonzero"/></clipPath><clipPath id="162d2b602c"><path d="M 0.945312 0.367188 L 243.492188 0.367188 L 243.492188 242.914062 L 0.945312 242.914062 Z M 0.945312 0.367188 " clip-rule="nonzero"/></clipPath><clipPath id="6fa8fe9e4f"><path d="M 243.492188 35.550781 L 243.492188 207.730469 C 243.492188 227.160156 227.742188 242.914062 208.308594 242.914062 L 36.128906 242.914062 C 16.699219 242.914062 0.945312 227.160156 0.945312 207.730469 L 0.945312 35.550781 C 0.945312 16.121094 16.699219 0.367188 36.128906 0.367188 L 208.308594 0.367188 C 227.742188 0.367188 243.492188 16.121094 243.492188 35.550781 Z M 243.492188 35.550781 " clip-rule="nonzero"/></clipPath><clipPath id="d70bddaf68"><rect x="0" width="244" y="0" height="243"/></clipPath></defs><g clip-path="url(#cf9b0b9d1b)"><g clip-path="url(#f46b2f308c)"><g transform="matrix(1, 0, 0, 1, 22, 69)"><g clip-path="url(#d70bddaf68)"><g clip-path="url(#162d2b602c)"><g clip-path="url(#6fa8fe9e4f)"><path fill="#ff3131" d="M 0.945312 0.367188 L 243.492188 0.367188 L 243.492188 242.914062 L 0.945312 242.914062 Z M 0.945312 0.367188 " fill-opacity="1" fill-rule="nonzero"/></g></g></g></g></g></g><g fill="#ffffff" fill-opacity="1"><g transform="translate(80.424851, 255.6464)"><g><path d="M 63.609375 2.40625 L 57.6875 2.03125 L 54 2.03125 L 46.78125 0.5625 L 39.75 -2.59375 L 36.984375 -4.25 L 33.28125 -5.921875 L 27.359375 -9.796875 L 24.59375 -12.203125 L 22.375 -14.796875 L 18.125 -21.453125 L 15.15625 -27.734375 L 13.3125 -35.3125 L 12.203125 -50.109375 L 12.765625 -79.875 L 12.390625 -83.390625 L 12.9375 -87.09375 L 12.390625 -112.984375 L 12.765625 -115.9375 L 12.765625 -120.375 L 12.390625 -124.078125 L 14.796875 -127.578125 L 18.671875 -129.0625 L 22.5625 -129.625 L 30.515625 -128.875 L 34.203125 -129.4375 L 37.71875 -129.4375 L 41.609375 -127.765625 L 43.828125 -123.703125 L 44.1875 -118.34375 L 43.828125 -112.421875 L 44.1875 -109.65625 L 43.640625 -50.109375 L 44.75 -39.390625 L 45.859375 -35.875 L 48.078125 -32.90625 L 51.03125 -30.6875 L 54.171875 -28.84375 L 58.4375 -27.921875 L 69.53125 -27.921875 L 76 -30.328125 L 79.140625 -32.546875 L 81.171875 -36.234375 L 82.28125 -39.015625 L 83.578125 -50.484375 L 83.203125 -123.328125 L 85.234375 -127.40625 L 89.125 -129.25 L 96.890625 -128.6875 L 108.546875 -129.0625 L 112.609375 -127.765625 L 115.015625 -123.890625 L 114.453125 -120.1875 L 114.453125 -104.84375 L 114.828125 -101.890625 L 114.453125 -97.8125 L 114.828125 -94.296875 L 114.828125 -44.375 L 113.90625 -35.5 L 112.234375 -27.734375 L 110.390625 -24.59375 L 109.28125 -20.890625 L 105.03125 -14.421875 L 99.84375 -9.25 L 93.75 -5.171875 L 87.09375 -1.671875 L 72.671875 2.03125 L 69.15625 1.84375 Z M 63.609375 2.40625 "/></g></g></g><g fill="#ffffff" fill-opacity="1"><g transform="translate(187.848621, 274.281323)"><g><path d="M 23.296875 0.734375 L 21.453125 0.734375 L 19.046875 0.1875 L 17.375 -0.375 L 13.125 -2.78125 L 12.203125 -4.25 L 10.171875 -5.921875 L 9.0625 -7.390625 L 8.140625 -9.4375 L 7.578125 -11.46875 L 7.390625 -20.34375 L 8.328125 -22.375 L 8.875 -24.21875 L 11.828125 -27.359375 L 15.53125 -30.515625 L 17.015625 -31.25 L 19.421875 -31.984375 L 23.484375 -32.734375 L 27.734375 -32.90625 L 29.765625 -32.734375 L 32.171875 -31.796875 L 34.390625 -31.4375 L 36.0625 -30.328125 L 38.09375 -29.21875 L 39.390625 -27.359375 L 40.671875 -26.25 L 41.96875 -24.40625 L 43.078125 -22 L 43.453125 -19.96875 L 44.1875 -17.75 L 44 -13.5 L 42.34375 -7.765625 L 41.046875 -5.921875 L 39.390625 -4.0625 L 37.71875 -2.59375 L 36.234375 -1.84375 L 33.84375 -0.375 L 31.796875 0.375 L 29.953125 0.375 L 27.921875 0.921875 Z M 23.296875 0.734375 "/></g></g></g></svg>